<svg xmlns="http://www.w3.org/2000/svg" width="1600" height="1000" viewBox="0 0 1600 1000" role="img" aria-labelledby="title">
  <title id="title">Industrial carbon fiber sheets and composite panels</title>
  <defs>
    <linearGradient id="bg" x1="0" x2="1" y1="0" y2="1">
      <stop offset="0" stop-color="#f8f9fa"/>
      <stop offset="1" stop-color="#dfe4e8"/>
    </linearGradient>
    <linearGradient id="plate" x1="0" x2="1" y1="0" y2="1">
      <stop offset="0" stop-color="#252a2f"/>
      <stop offset="0.52" stop-color="#0b0e11"/>
      <stop offset="1" stop-color="#353b42"/>
    </linearGradient>
    <pattern id="weave" width="44" height="44" patternUnits="userSpaceOnUse" patternTransform="rotate(28)">
      <rect width="44" height="44" fill="#12161a"/>
      <rect x="0" y="0" width="22" height="44" fill="#20262c" opacity="0.9"/>
      <rect x="0" y="0" width="44" height="22" fill="#06080a" opacity="0.45"/>
      <path d="M0 0H44M0 22H44M0 44H44" stroke="#3b444c" stroke-width="1" opacity="0.35"/>
    </pattern>
    <filter id="shadow" x="-20%" y="-20%" width="140%" height="140%">
      <feDropShadow dx="0" dy="28" stdDeviation="24" flood-color="#0a0d10" flood-opacity="0.18"/>
    </filter>
  </defs>
  <rect width="1600" height="1000" fill="url(#bg)"/>
  <path d="M0 760C240 700 390 736 620 690C850 645 1050 540 1280 575C1430 598 1534 676 1600 720V1000H0Z" fill="#cfd6dc" opacity="0.55"/>
  <g opacity="0.38">
    <path d="M0 160H1600M0 320H1600M0 480H1600M0 640H1600M0 800H1600" stroke="#b7c0c7" stroke-width="1"/>
    <path d="M160 0V1000M320 0V1000M480 0V1000M640 0V1000M800 0V1000M960 0V1000M1120 0V1000M1280 0V1000M1440 0V1000" stroke="#b7c0c7" stroke-width="1"/>
  </g>
  <g filter="url(#shadow)">
    <path d="M312 308L1005 204L1285 386L594 515Z" fill="url(#plate)"/>
    <path d="M312 308L594 515L594 566L312 361Z" fill="#15191d"/>
    <path d="M594 515L1285 386V437L594 566Z" fill="#07090b"/>
    <path d="M335 314L998 218L1260 390L600 510Z" fill="url(#weave)" opacity="0.95"/>
    <circle cx="920" cy="348" r="48" fill="#e8ecef" opacity="0.96"/>
    <circle cx="920" cy="348" r="27" fill="#0b0e11"/>
    <circle cx="1088" cy="385" r="34" fill="#e8ecef" opacity="0.96"/>
    <circle cx="1088" cy="385" r="18" fill="#0b0e11"/>
    <rect x="514" y="348" width="216" height="52" rx="8" fill="#e8ecef" opacity="0.9"/>
    <rect x="540" y="365" width="164" height="18" rx="4" fill="#0b0e11"/>
  </g>
  <g filter="url(#shadow)" opacity="0.96">
    <path d="M455 568L1067 452L1260 575L650 706Z" fill="#23282e"/>
    <path d="M455 568L650 706V742L455 606Z" fill="#111519"/>
    <path d="M650 706L1260 575V612L650 742Z" fill="#090b0d"/>
    <path d="M484 573L1064 465L1236 577L654 696Z" fill="url(#weave)"/>
  </g>
  <g filter="url(#shadow)" opacity="0.9">
    <path d="M694 728L1123 638L1274 726L846 827Z" fill="#2f363d"/>
    <path d="M694 728L846 827V858L694 757Z" fill="#171b20"/>
    <path d="M846 827L1274 726V756L846 858Z" fill="#0b0d0f"/>
    <path d="M719 729L1119 648L1249 726L850 818Z" fill="url(#weave)"/>
  </g>
</svg>
